# xmcd CD database file
#
# Track frame offsets:
#	150
#	30640
#	51202
#	74082
#	98657
#	124985
#	136882
#	147512
#	168212
#	191280
#	215990
#	236122
#
# Disc length: 3518 seconds
#
# Revision: 0
# Processed by: cddbd v1.5.2PL0 Copyright (c) Steve Scherf et al.
# Submitted via: CDex 1.51
#
DISCID=b90dbc0c
DTITLE=Reidar Larsen - All Most Live - Del 2
DYEAR=1995
DGENRE=Blues
TTITLE0=Tumbling out tonight
TTITLE1=Why is it all so cold
TTITLE2=Your hands want touch me
TTITLE3=Long time ago
TTITLE4=High on the hill
TTITLE5=Winter
TTITLE6=An old fashion fake
TTITLE7=Well done with night affairs
TTITLE8=Bad girls dream
TTITLE9=I close my eyes
TTITLE10=I see eyes
TTITLE11=Marching feets
EXTD=YEAR: 1995
EXTT0=
EXTT1=
EXTT2=
EXTT3=
EXTT4=
EXTT5=
EXTT6=
EXTT7=
EXTT8=
EXTT9=
EXTT10=
EXTT11=
PLAYORDER=
